<svg id="Layer_2" data-name="Layer 2" xmlns="http://www.w3.org/2000/svg" viewBox="0 0 1600 900"><defs><style>.cls-1,.cls-5{fill:#f2f2f2;}.cls-2,.cls-3,.cls-4{fill:#fafafa;}.cls-2,.cls-5{stroke:#e7e7e7;}.cls-2,.cls-3,.cls-4,.cls-5,.cls-6,.cls-7,.cls-8,.cls-9{stroke-miterlimit:10;}.cls-3,.cls-4,.cls-6,.cls-7,.cls-8,.cls-9{stroke:#000;}.cls-3{stroke-width:4px;}.cls-6,.cls-7{fill:#fff;}.cls-6,.cls-9{stroke-width:2px;}.cls-7{stroke-width:0.75px;}.cls-9{fill:none;}</style></defs><title>Artboard 4</title><g id="Baggrund"><rect class="cls-1" width="1600" height="900"/><rect class="cls-2" x="0.5" y="0.5" width="1599" height="99"/></g><g id="Logo"><rect class="cls-3" x="48" y="26" width="47" height="47" rx="9.28"/><circle class="cls-3" cx="71.5" cy="49.5" r="8.97"/><circle class="cls-3" cx="86.03" cy="35.83" r="2.14"/></g><line class="cls-4" x1="140" y1="23" x2="140" y2="78"/><path d="M192.77,34.09a1.06,1.06,0,0,0-.13.25,2.32,2.32,0,0,0-.07.7,4.64,4.64,0,0,0,.2,1.35V52.94a23.67,23.67,0,0,1-.5,4.9A11.92,11.92,0,0,1,190.54,62a8.66,8.66,0,0,1-3.36,2.9A12,12,0,0,1,181.74,66h-.65a11.69,11.69,0,0,1-4.64-.77,7.49,7.49,0,0,1-2.78-2,6.38,6.38,0,0,1-1.35-2.62,11.14,11.14,0,0,1-.36-2.73,8.27,8.27,0,0,1,.28-2.12A5.91,5.91,0,0,1,173,54a4.35,4.35,0,0,1,1.28-1.25,3.1,3.1,0,0,1,1.71-.48c.6,0,1,.16,1.15.48a2,2,0,0,1,.25,1,3.4,3.4,0,0,1-.45,1.83,7.61,7.61,0,0,1-1,1.27c-.35.37-.68.74-1,1.1a2.07,2.07,0,0,0-.45,1.35,3.82,3.82,0,0,0,1.61,3.45,7.16,7.16,0,0,0,4,1.05,7.5,7.5,0,0,0,3.66-.85,8.33,8.33,0,0,0,2.58-2.15A9.22,9.22,0,0,0,188,57.92a9.39,9.39,0,0,0,.5-2.88l-.75.05a5.83,5.83,0,0,1-3.14-.82,7.41,7.41,0,0,1-2.2-2.08,9.13,9.13,0,0,1-1.31-2.7,9.67,9.67,0,0,1-.42-2.7V45a11.48,11.48,0,0,1,.25-2.22,23.23,23.23,0,0,1,.7-2.65,20.94,20.94,0,0,1,1.1-2.7,17.8,17.8,0,0,1,1.41-2.38,8,8,0,0,1,1.6-1.7,2.89,2.89,0,0,1,1.76-.65,2.59,2.59,0,0,1,.8.15l3.51.25a1.88,1.88,0,0,1,.67.25A.76.76,0,0,1,192.77,34.09Zm-4.31,6c.07-.26.13-.51.2-.75a2.78,2.78,0,0,0,.1-.8,2.15,2.15,0,0,0-.33-1.17,1.27,1.27,0,0,0-1.18-.53,2.19,2.19,0,0,0-1.8.9,6.48,6.48,0,0,0-1.08,2.15,14.78,14.78,0,0,0-.52,2.6,20.87,20.87,0,0,0-.15,2.2c0,.44,0,1.06.1,1.88a10.68,10.68,0,0,0,.47,2.42,6.69,6.69,0,0,0,1.06,2.1,2.17,2.17,0,0,0,1.83.9,5.62,5.62,0,0,0,.57-.05,2.63,2.63,0,0,0,.73-.15Z"/><path d="M204.25,53.09A10.14,10.14,0,0,0,203,55.42a26.44,26.44,0,0,0-.83,2.65c-.23.92-.42,1.83-.57,2.75s-.31,1.79-.48,2.62c-.07.2-.32.34-.78.4a6.93,6.93,0,0,1-1,.1,8.58,8.58,0,0,1-1.48-.1,1.33,1.33,0,0,1-.88-.47,2.65,2.65,0,0,1-.45-1.15,20.15,20.15,0,0,1-.25-2.08L197,45.29c0-.43.23-.65.7-.65a4.65,4.65,0,0,1,.7.08,8.12,8.12,0,0,1,1,.22,3.35,3.35,0,0,1,.85.38.63.63,0,0,1,.35.52V56a1.46,1.46,0,0,0,.15-.4c.23-.6.52-1.34.85-2.22a26.45,26.45,0,0,1,1.11-2.53,11.84,11.84,0,0,1,1.27-2.05,1.88,1.88,0,0,1,1.38-.85,2,2,0,0,1,1.38.43,2.72,2.72,0,0,1,.73,1.07,5.28,5.28,0,0,1,.3,1.4c0,.5,0,1,0,1.45s0,.89-.1,1.65-.1,1.92-.1,3.45a10,10,0,0,0,.25,2.35c.17.7.5,1,1,1a1.3,1.3,0,0,0,1-.5,5.22,5.22,0,0,0,.83-1.25,9.86,9.86,0,0,0,.63-1.6,7.58,7.58,0,0,0,.3-1.6c0-.63.28-1,.75-1a.6.6,0,0,1,.6.3,1.57,1.57,0,0,1,.15.7V56a11.41,11.41,0,0,1-.37,2.25,9.52,9.52,0,0,1-1,2.35,5.89,5.89,0,0,1-1.62,1.85,4,4,0,0,1-2.46.75q-2.26,0-2.88-1.62a14.06,14.06,0,0,1-.63-4.83Z"/><path d="M223.8,60.89a2.25,2.25,0,0,1-.8,1.85,5.16,5.16,0,0,1-1.83.95,9.94,9.94,0,0,1-2.06.38c-.68.05-1.18.07-1.48.07A12.48,12.48,0,0,1,215.9,64a11.4,11.4,0,0,1-2-.47,4.87,4.87,0,0,1-1.66-.93,1.92,1.92,0,0,1-.67-1.5.8.8,0,0,1,.42-.77,1.64,1.64,0,0,1,1.91.17l1.1.85a10.15,10.15,0,0,0,1.28.85,2.85,2.85,0,0,0,2.68.13,1,1,0,0,0,.68-1,2,2,0,0,0-.58-1.35,12.19,12.19,0,0,0-1.45-1.35c-.59-.46-1.21-1-1.88-1.45a17.22,17.22,0,0,1-1.88-1.62,8.46,8.46,0,0,1-1.46-1.93,4.72,4.72,0,0,1-.57-2.3,4.12,4.12,0,0,1,1.13-3,8.41,8.41,0,0,1,2.65-1.9,13.82,13.82,0,0,1,3.14-1,14.53,14.53,0,0,1,2.5-.3,4.55,4.55,0,0,1,1.71.35,1.33,1.33,0,0,1,.85,1.35,4.11,4.11,0,0,1-.13.88,4.29,4.29,0,0,1-.4,1.12,3.31,3.31,0,0,1-.72,1,1.64,1.64,0,0,1-1.16.42.61.61,0,0,1-.4-.17l-.45-.4a4.09,4.09,0,0,0-.53-.4,1.1,1.1,0,0,0-.62-.18,2.78,2.78,0,0,0-2.46,1,3.76,3.76,0,0,0-.7,2.17,3,3,0,0,0,1.18,2.1,32.92,32.92,0,0,0,2.6,2.2c1,.74,1.83,1.46,2.61,2.18A3,3,0,0,1,223.8,60.89Z"/><path d="M224.9,54.94c0-1.7.09-3.43.15-5.2s.14-3.4.2-4.9c0-.26-.26-.45-.8-.55s-1.14-.2-1.8-.3a7.85,7.85,0,0,1-1.81-.47,1.13,1.13,0,0,1-.8-1.08c0-.43.43-.68,1.3-.75s2.16-.1,3.86-.1c.14,0,.23-.2.28-.6s.08-.9.1-1.52,0-1.28,0-2,0-1.35.07-2a12,12,0,0,1,.18-1.53q.12-.6.33-.6a9,9,0,0,1,.9.1c.43.07.88.16,1.35.28a7.34,7.34,0,0,1,1.23.42c.35.17.53.35.53.55l-.55,6.5c0,.2.17.35.52.43a7.46,7.46,0,0,0,1.35.15c.56,0,1.14,0,1.76,0a9.75,9.75,0,0,1,1.75.15,3.8,3.8,0,0,1,1.36.48,1.07,1.07,0,0,1,.52,1,.87.87,0,0,1-.1.33c-.06.15-.15.22-.25.22a.49.49,0,0,1-.27-.15,1.74,1.74,0,0,0-.93-.15l-1.1.05-1.91.15c-.67.07-1.28.15-1.83.23s-.86.19-.93.32a8.52,8.52,0,0,0-.12,1.18q-.08,1.08-.15,2.82c-.05,1.17-.09,2.51-.13,4s-.05,3.11-.05,4.77a18.44,18.44,0,0,0,.1,1.85,11.33,11.33,0,0,0,.3,1.63,3.74,3.74,0,0,0,.53,1.17,1,1,0,0,0,.78.45,1.67,1.67,0,0,0,1.2-.55,5.08,5.08,0,0,0,1-1.5,14,14,0,0,0,.81-2.15c.23-.8.43-1.61.6-2.45a3.31,3.31,0,0,1,.35-1.07.65.65,0,0,1,.6-.33,1,1,0,0,1,.63.23,1.35,1.35,0,0,1,.27,1,2.26,2.26,0,0,1-.05.65c-.1.6-.29,1.43-.57,2.48a18.5,18.5,0,0,1-1.16,3.1,10.54,10.54,0,0,1-1.78,2.67,3.22,3.22,0,0,1-2.45,1.15,3.72,3.72,0,0,1-2.36-.77,6,6,0,0,1-1.68-2.15,12.94,12.94,0,0,1-1-3.25,22.24,22.24,0,0,1-.35-4Z"/><path d="M254.63,58.54a6.8,6.8,0,0,1-.5,1.65,9.21,9.21,0,0,1-1,1.83,6.53,6.53,0,0,1-1.45,1.47,3,3,0,0,1-1.83.6,3.56,3.56,0,0,1-2.63-1.15,5.3,5.3,0,0,1-1.38-3.25c-.2.54-.44,1.15-.7,1.85a10,10,0,0,1-1,2A6.79,6.79,0,0,1,242.72,65a2.78,2.78,0,0,1-1.83.62,1.32,1.32,0,0,1-.45,0l-.32-.12a3.14,3.14,0,0,0-.4-.13,3.32,3.32,0,0,0-.63,0,2.84,2.84,0,0,1-2-.77,5.66,5.66,0,0,1-1.33-2,11.57,11.57,0,0,1-.73-2.62,17.16,17.16,0,0,1-.22-2.68,49.2,49.2,0,0,1,.32-5.7,21.8,21.8,0,0,1,1.08-4.77,9,9,0,0,1,2-3.3,3.91,3.91,0,0,1,2.9-1.23,5,5,0,0,1,1.53.18,8,8,0,0,1,1,.4l1,.47a5.41,5.41,0,0,0,1.48.4,3.65,3.65,0,0,1,1.48,1.43,5.62,5.62,0,0,1,.55,1.77,10.8,10.8,0,0,1,.07,2,10.45,10.45,0,0,0,.1,2s.08.09.23.15l.53.23a1.54,1.54,0,0,1,.52.35.78.78,0,0,1,.23.57v.2a8.62,8.62,0,0,0-.6,2.3,23.68,23.68,0,0,0-.1,2.4c0,.47,0,1,.07,1.53a10.25,10.25,0,0,0,.25,1.55,3.31,3.31,0,0,0,.53,1.2,1.05,1.05,0,0,0,.9.47,1.38,1.38,0,0,0,1.08-.6,5.74,5.74,0,0,0,.8-1.37,12.85,12.85,0,0,0,.55-1.58,10.24,10.24,0,0,0,.28-1.2c.06-.4.23-.6.5-.6a.66.66,0,0,1,.48.28,1.57,1.57,0,0,1,.22,1v.38A2.37,2.37,0,0,1,254.63,58.54Zm-9.27-8.1a11.47,11.47,0,0,0-.1-1.3,6.83,6.83,0,0,0-.35-1.4,2.83,2.83,0,0,0-.76-1.1,1.93,1.93,0,0,0-1.35-.45,2.65,2.65,0,0,0-2.28,1.28,10.11,10.11,0,0,0-1.38,3,18.22,18.22,0,0,0-.65,3.55c-.1,1.22-.15,2.17-.15,2.87,0,.54,0,1.18.07,1.93a15.1,15.1,0,0,0,.28,2.12,5.65,5.65,0,0,0,.58,1.7,1.1,1.1,0,0,0,1,.7,2.53,2.53,0,0,0,2.23-1.12,8.27,8.27,0,0,0,1.18-2.8,25.55,25.55,0,0,0,.58-3.6c.11-1.28.22-2.46.32-3.53a1.43,1.43,0,0,1,.46-1.07c.23-.15.35-.26.35-.33Z"/><path d="M269.77,65.29a.7.7,0,0,1-.45.7,2,2,0,0,1-.85.2l-1-.1c-.17,0-.25.1-.25.3l0,.6c0,.9,0,2,0,3.4v4q0,2-.12,3.93a16.32,16.32,0,0,1-.58,3.45,6.31,6.31,0,0,1-1.28,2.45,2.88,2.88,0,0,1-2.28.92c-.83,0-1.71,0-2.63-.12a7.65,7.65,0,0,1-2.51-.63A4.53,4.53,0,0,1,256,82.87a4.27,4.27,0,0,1-.73-2.63,15.83,15.83,0,0,1,.38-3.37,17.93,17.93,0,0,1,1.08-3.35,21.12,21.12,0,0,1,1.69-3.1,17.07,17.07,0,0,1,2.15-2.63c.4-.4.85-.8,1.34-1.22s.91-.76,1.28-1v-.05q.11-1,.15-2.1c0-.7.05-1.41.05-2.15q-.25.45-.6,1.23a9.6,9.6,0,0,1-.83,1.47,6.15,6.15,0,0,1-1.09,1.23,2,2,0,0,1-1.36.52,1.54,1.54,0,0,1-.7-.15,2,2,0,0,0-.86-.15,4.45,4.45,0,0,1-2.34-.75,4.3,4.3,0,0,1-1.46-1.8,8.92,8.92,0,0,1-.73-2.72,27,27,0,0,1-.2-3.53,45.32,45.32,0,0,1,.27-4.85,21.94,21.94,0,0,1,1-4.57,9.72,9.72,0,0,1,1.89-3.4,3.86,3.86,0,0,1,3-1.33,1.35,1.35,0,0,1,.53.15l.71.33.75.35a3,3,0,0,0,.58.22,14.74,14.74,0,0,1,1.86.5,4.94,4.94,0,0,1,1.46.78,3.37,3.37,0,0,1,1,1.25,4.74,4.74,0,0,1,.35,1.92,7.1,7.1,0,0,1-.13,1.45,9.46,9.46,0,0,0-.12,1.65.56.56,0,0,0,.28.55,2.84,2.84,0,0,0,.66.25c.24.07.46.15.66.23a.51.51,0,0,1,.31.52,1.49,1.49,0,0,1-.23.48l-.28.47a6.21,6.21,0,0,0-.25,1.28c-.06.58-.12,1.22-.15,1.9s-.06,1.38-.07,2.1,0,1.36,0,1.92v1.73c0,.72,0,1.31,0,1.77h.2a.65.65,0,0,0,.2,0l.15,0a4.12,4.12,0,0,1,1.23.28C269.51,64.65,269.77,64.93,269.77,65.29ZM263.4,49.84a8.56,8.56,0,0,0-.1-1.25,5.83,5.83,0,0,0-.35-1.32,2.72,2.72,0,0,0-.73-1.05,1.76,1.76,0,0,0-1.19-.43,2.62,2.62,0,0,0-1.79.75,6.34,6.34,0,0,0-1.47,2.13,14.64,14.64,0,0,0-1,3.35,24.12,24.12,0,0,0-.38,4.47c0,.7,0,1.43.08,2.18a15.69,15.69,0,0,0,.25,2,4.47,4.47,0,0,0,.55,1.5,1.13,1.13,0,0,0,1,.6,2.41,2.41,0,0,0,1.85-.9,7.32,7.32,0,0,0,1.33-2.22,15,15,0,0,0,.8-2.75,16.52,16.52,0,0,0,.33-2.48,13.84,13.84,0,0,1,.16-2,2.16,2.16,0,0,1,.21-.68,1.81,1.81,0,0,0,.4-.95A6.09,6.09,0,0,0,263.4,49.84Zm-.2,17.35a9.44,9.44,0,0,0-2.2,2.25,18,18,0,0,0-1.79,3.15A19.86,19.86,0,0,0,258,76a13.21,13.21,0,0,0-.43,3.15,6.33,6.33,0,0,0,.1,1.1,5.1,5.1,0,0,0,.33,1.13,2.27,2.27,0,0,0,.65.87,1.58,1.58,0,0,0,1,.35,2.14,2.14,0,0,0,1.75-.87,6.58,6.58,0,0,0,1.06-2.08,12,12,0,0,0,.5-2.45,19.28,19.28,0,0,0,.13-2v-.45c0-.2,0-.58,0-1.15s0-1.35,0-2.37Z"/><path d="M284.76,56.94a14.22,14.22,0,0,1-.23,1.68,14.61,14.61,0,0,1-.8,2.8A9,9,0,0,1,282.18,64a3.1,3.1,0,0,1-2.48,1.15,3.16,3.16,0,0,1-2.56-1.12,7.79,7.79,0,0,1-1.46-2.7,15.44,15.44,0,0,1-.65-3.3q-.15-1.73-.15-2.88a23.28,23.28,0,0,1,.15-2.62c.1-.88.17-1.76.2-2.63a.48.48,0,0,0-.4-.5,3.52,3.52,0,0,0-.75-.1,1.19,1.19,0,0,0-.75.15.73.73,0,0,0-.2.35l-.2,1.6c-.14,1.07-.28,2.1-.43,3.08s-.32,1.85-.5,2.6a7.24,7.24,0,0,1-.65,1.8c-.25.45-.55.67-.88.67h-.05a.75.75,0,0,1-.38-.1c-.11-.06-.17-.23-.17-.5a2.6,2.6,0,0,1,.1-.6,21.84,21.84,0,0,0,.5-2.9c.07-.76.12-1.45.15-2.05v-.35q0-.24,0-.6c0-.23,0-.51,0-.85V49.19a8.79,8.79,0,0,0-.1-1.3l-.15-3a.76.76,0,0,1,.25-.55,3.08,3.08,0,0,1,.65-.45,4.07,4.07,0,0,1,1.66-.4c.57,0,.85.37.85,1.1v.25l-.05,1.1v.3c0,.24.05.38.15.43a2.74,2.74,0,0,0,.6.17h.15c.27,0,.7.07,1.31.1s1.2.1,1.8.2a5.75,5.75,0,0,1,1.58.48,1,1,0,0,1,.68.92,2.8,2.8,0,0,1-.1.58,7.32,7.32,0,0,1-.25.75c-.11.25-.19.47-.26.67a2.17,2.17,0,0,0-.1.4,28.41,28.41,0,0,0-.9,7.2c0,.2,0,.57.05,1.1a16.12,16.12,0,0,0,.2,1.65,6,6,0,0,0,.45,1.5c.2.44.45.65.76.65a1.65,1.65,0,0,0,1.35-.92A10.76,10.76,0,0,0,282.3,60a20.06,20.06,0,0,0,.73-2.48c.18-.83.31-1.45.38-1.85s.17-.59.32-.67a.92.92,0,0,1,.43-.13c.46,0,.7.3.7.9,0,.07,0,.25,0,.53A3.43,3.43,0,0,1,284.76,56.94Z"/><path d="M303.16,58.54a6.88,6.88,0,0,1-.51,1.65,9.16,9.16,0,0,1-1,1.83,6.57,6.57,0,0,1-1.46,1.47,3,3,0,0,1-1.83.6,3.56,3.56,0,0,1-2.63-1.15,5.42,5.42,0,0,1-1.38-3.25c-.2.54-.43,1.15-.7,1.85a10,10,0,0,1-1,2A6.79,6.79,0,0,1,291.25,65a2.82,2.82,0,0,1-1.83.62,1.32,1.32,0,0,1-.45,0l-.33-.12a2.69,2.69,0,0,0-.4-.13,3.28,3.28,0,0,0-.62,0,2.86,2.86,0,0,1-2-.77,5.64,5.64,0,0,1-1.32-2,11.08,11.08,0,0,1-.73-2.62,17.23,17.23,0,0,1-.23-2.68,47,47,0,0,1,.33-5.7,21.8,21.8,0,0,1,1.08-4.77,9.08,9.08,0,0,1,2-3.3,3.91,3.91,0,0,1,2.91-1.23,5,5,0,0,1,1.53.18,8,8,0,0,1,1,.4l1,.47a5.62,5.62,0,0,0,1.48.4A3.53,3.53,0,0,1,296,45.12a5.15,5.15,0,0,1,.55,1.77,10.79,10.79,0,0,1,.08,2,10.45,10.45,0,0,0,.1,2s.07.09.22.15l.53.23a1.58,1.58,0,0,1,.53.35.77.77,0,0,1,.22.57v.2a9.45,9.45,0,0,0-.6,2.3,23.68,23.68,0,0,0-.1,2.4c0,.47,0,1,.08,1.53a10.25,10.25,0,0,0,.25,1.55,3.3,3.3,0,0,0,.52,1.2,1.08,1.08,0,0,0,.91.47,1.34,1.34,0,0,0,1.07-.6,5.76,5.76,0,0,0,.81-1.37,14.76,14.76,0,0,0,.55-1.58,8.17,8.17,0,0,0,.27-1.2c.07-.4.24-.6.5-.6a.65.65,0,0,1,.48.28,1.56,1.56,0,0,1,.23,1v.38A2.37,2.37,0,0,1,303.16,58.54Zm-9.28-8.1a9.54,9.54,0,0,0-.1-1.3,6.24,6.24,0,0,0-.35-1.4,2.91,2.91,0,0,0-.75-1.1,2,2,0,0,0-1.35-.45A2.68,2.68,0,0,0,289,47.47a10.35,10.35,0,0,0-1.37,3A17.52,17.52,0,0,0,287,54c-.1,1.22-.15,2.17-.15,2.87,0,.54,0,1.18.08,1.93a16.78,16.78,0,0,0,.27,2.12,6.26,6.26,0,0,0,.58,1.7,1.11,1.11,0,0,0,1,.7A2.54,2.54,0,0,0,291,62.22a8.27,8.27,0,0,0,1.18-2.8,25.58,25.58,0,0,0,.57-3.6l.33-3.53a1.47,1.47,0,0,1,.45-1.07c.23-.15.35-.26.35-.33Z"/><path d="M318.5,51.69a31.14,31.14,0,0,0-1.31,2.85c-.4,1-.7,1.79-.9,2.35,0,.17-.12.52-.28,1s-.31,1.13-.5,1.78-.34,1.29-.47,1.92a7.44,7.44,0,0,0-.2,1.55c0,.17-.15.32-.46.45a2.73,2.73,0,0,1-1.15.2,4.24,4.24,0,0,1-1.75-.3,2,2,0,0,1-1-1,4.83,4.83,0,0,1-.4-1.78c-.05-.73-.08-1.61-.08-2.65V54.39c0-.26,0-.53,0-.8a.67.67,0,0,0-.18-.5c-.16.07-.37.5-.62,1.3a25,25,0,0,0-.7,2.93c-.22,1.15-.42,2.36-.58,3.62a25.8,25.8,0,0,0-.25,3.4.61.61,0,0,1-.58.65,7.15,7.15,0,0,1-1.28.1,4.68,4.68,0,0,1-.67-.07q-.48-.08-1-.18a3.85,3.85,0,0,1-.87-.27.9.9,0,0,1-.51-.43,8.75,8.75,0,0,1-.37-2.15c-.09-1-.13-2.55-.13-4.65,0-1.23,0-2.66.08-4.3s.11-3.55.17-5.75c0-.3,0-.69-.05-1.17s-.05-.76-.05-.83a.42.42,0,0,1,.33-.47,2.57,2.57,0,0,1,.48-.08,5.48,5.48,0,0,1,.82.08l1,.17c.31.07.6.15.87.23a2.52,2.52,0,0,1,.55.22V57.49c.17-.66.36-1.44.58-2.32s.47-1.76.75-2.63.6-1.66.93-2.4a5.08,5.08,0,0,1,1-1.6,1.81,1.81,0,0,1,.76-.22,6.88,6.88,0,0,1,.9-.08,3.38,3.38,0,0,1,.62.08,3.62,3.62,0,0,1,.73.22,2.85,2.85,0,0,1,.63.38.83.83,0,0,1,.32.52V58c0,.2,0,.3.1.3a4.49,4.49,0,0,0,.58-1.35c.31-.9.68-2,1.12-3.2s.89-2.5,1.39-3.8a31.37,31.37,0,0,1,1.35-3.1c.06-.13.29-.2.67-.22l1,0a3,3,0,0,1,1,.23,5.5,5.5,0,0,1,1.17.62,5.43,5.43,0,0,1,1,.9,1.6,1.6,0,0,1,.43,1,2,2,0,0,1-.3.58,2.78,2.78,0,0,0-.4,1,17.26,17.26,0,0,0-.48,2.75q-.12,1.35-.12,3.45c0,.6,0,1.2.07,1.8a10.36,10.36,0,0,0,.25,1.63,3.75,3.75,0,0,0,.48,1.17.92.92,0,0,0,.8.45,1.82,1.82,0,0,0,1.25-.47,4.05,4.05,0,0,0,1-1.28,10.81,10.81,0,0,0,.7-1.87c.2-.72.36-1.46.5-2.23s.47-1.2.9-1.2a.6.6,0,0,1,.53.2,2.14,2.14,0,0,1,.12.9,1.76,1.76,0,0,1,0,.55,11.72,11.72,0,0,1-.42,2,14.81,14.81,0,0,1-1.06,2.75,9.06,9.06,0,0,1-1.68,2.4,3.12,3.12,0,0,1-2.3,1,4.22,4.22,0,0,1-2.54-.72,4.67,4.67,0,0,1-1.53-1.95,10.35,10.35,0,0,1-.77-2.83,24,24,0,0,1-.22-3.35v-.35Z"/><g id="Searchbar"><rect class="cls-5" x="600" y="28" width="400" height="44" rx="7.57"/><path d="M747.11,49.85l.46-1.86c.15-.6.3-1.15.44-1.65h-2a3.05,3.05,0,0,1-1.32-.27,1,1,0,0,1-.57-1v0a1.45,1.45,0,0,1,.15-.66q.15-.3.72-.3H745l1.17,0h2.34c.24-.86.45-1.71.64-2.55a16.43,16.43,0,0,0,.35-3,.72.72,0,0,1,.18-.57.88.88,0,0,1,.57-.15,2.45,2.45,0,0,1,1.18.31,1.42,1.42,0,0,1,.74.95,42.07,42.07,0,0,1-1,5h4q.36-1.26.63-2.52a17.37,17.37,0,0,0,.33-3,.72.72,0,0,1,.18-.57.88.88,0,0,1,.57-.15,2.45,2.45,0,0,1,1.18.31,1.42,1.42,0,0,1,.74,1q-.15,1.14-.39,2.37t-.57,2.58h2a.68.68,0,0,1,.64.48,2.53,2.53,0,0,1,.17.87,1.19,1.19,0,0,1-.17.63c-.11.18-.34.27-.7.27h-2.55l-.9,3.51H759a.68.68,0,0,1,.64.48,2.53,2.53,0,0,1,.17.87,1.19,1.19,0,0,1-.17.63c-.11.18-.34.27-.7.27H755.9q-.3,1.35-.54,2.73a14.39,14.39,0,0,0-.24,2.43,1.2,1.2,0,0,1,.15.39,2.38,2.38,0,0,1,0,.39.82.82,0,0,1-.15.52.69.69,0,0,1-.57.2,2,2,0,0,1-.8-.17,2.48,2.48,0,0,1-.67-.43,2,2,0,0,1-.47-.6,1.4,1.4,0,0,1-.16-.63,12.27,12.27,0,0,1,.22-2c.15-.85.34-1.78.56-2.8h-4a25.63,25.63,0,0,0-.51,2.7q-.18,1.35-.27,2.4a.93.93,0,0,1,.15.39,2.77,2.77,0,0,1,0,.39.82.82,0,0,1-.15.52.69.69,0,0,1-.57.2,2.06,2.06,0,0,1-.81-.17,2.25,2.25,0,0,1-.68-.43,2.15,2.15,0,0,1-.45-.6,1.4,1.4,0,0,1-.16-.63,12.27,12.27,0,0,1,.22-2c.15-.85.34-1.75.56-2.71H745a3.05,3.05,0,0,1-1.32-.27,1,1,0,0,1-.57-1v0a1.45,1.45,0,0,1,.15-.66q.15-.3.72-.3h.09l1.17,0h1.86Zm3.57-3.54c-.16.58-.32,1.16-.47,1.75s-.3,1.19-.46,1.79h4c.16-.66.32-1.29.48-1.88s.3-1.14.42-1.66Z"/><path d="M770.27,52.43a12.09,12.09,0,0,1-.23,2.38,6.87,6.87,0,0,1-.66,1.95,3.85,3.85,0,0,1-1.13,1.32,2.63,2.63,0,0,1-1.58.5,2.82,2.82,0,0,1-1.38-.32,1.14,1.14,0,0,1-.57-1.09.61.61,0,0,1,.22-.51.69.69,0,0,1,.41-.18.4.4,0,0,1,.34.13q.1.14.21.3a1.76,1.76,0,0,0,.24.3.61.61,0,0,0,.44.14.88.88,0,0,0,.79-.48,3.91,3.91,0,0,0,.44-1.2,10.4,10.4,0,0,0,.19-1.56c0-.56,0-1.08,0-1.56V51.17c0-.28,0-.62,0-1a6.46,6.46,0,0,0-.15-1.11,2.63,2.63,0,0,0-.38-.9.77.77,0,0,0-.67-.37c-.42,0-.79.3-1.1.91A9.61,9.61,0,0,0,765,51a23.67,23.67,0,0,0-.44,3.09c-.09,1.13-.13,2.22-.13,3.26V60q0,.6.06,1c0,.3,0,.58.07.84s.07.51.12.76.12.54.2.86c0,.06.09.11.22.16a.29.29,0,0,1,.2.29.45.45,0,0,1-.17.37,1.18,1.18,0,0,1-.42.21,2.34,2.34,0,0,1-.55.09l-.54,0h-.42a2.57,2.57,0,0,1-.72-.11.5.5,0,0,1-.36-.55V46.43a3.12,3.12,0,0,0-.12-1l-.06-.23-.06-.19s0-.09.16-.15l.38-.18.4-.15.23-.06a1,1,0,0,1,.79.33,2.07,2.07,0,0,1,.29,1.29V50.3a7.14,7.14,0,0,0,.34-1.11,7.21,7.21,0,0,1,.48-1.37,3.91,3.91,0,0,1,.82-1.17,1.79,1.79,0,0,1,1.31-.49,2.07,2.07,0,0,1,1.57.64,4.76,4.76,0,0,1,1,1.56,8.24,8.24,0,0,1,.53,2,13.08,13.08,0,0,1,.15,1.85Z"/><path d="M779.84,54a8.85,8.85,0,0,1-.14,1,8.62,8.62,0,0,1-.48,1.68,5.53,5.53,0,0,1-.93,1.58,1.85,1.85,0,0,1-1.48.69,1.9,1.9,0,0,1-1.53-.68,4.67,4.67,0,0,1-.87-1.62,9.14,9.14,0,0,1-.39-2c-.06-.69-.09-1.26-.09-1.72a14.08,14.08,0,0,1,.09-1.58c.06-.53.1-1,.12-1.57a.28.28,0,0,0-.24-.3,1.86,1.86,0,0,0-.45-.06.71.71,0,0,0-.45.09.45.45,0,0,0-.12.21l-.12,1c-.08.64-.17,1.25-.26,1.84s-.19,1.11-.3,1.56a4.42,4.42,0,0,1-.39,1.08c-.15.27-.32.41-.52.41h0a.46.46,0,0,1-.23-.06c-.07,0-.1-.14-.1-.3a1.64,1.64,0,0,1,.06-.36,13.27,13.27,0,0,0,.3-1.74q.06-.69.09-1.23v-.21c0-.1,0-.22,0-.36s0-.31,0-.51V49.31a5.54,5.54,0,0,0-.06-.78l-.09-1.77a.46.46,0,0,1,.15-.33,1.49,1.49,0,0,1,.39-.27,2.21,2.21,0,0,1,.51-.18,2.24,2.24,0,0,1,.48-.06q.51,0,.51.66v.15l0,.66v.18c0,.14,0,.22.09.25a1.76,1.76,0,0,0,.36.11h.09l.78.06a9.91,9.91,0,0,1,1.08.12,3.46,3.46,0,0,1,.94.28A.62.62,0,0,1,777,49a1.43,1.43,0,0,1-.06.34,4,4,0,0,1-.15.45c-.06.15-.11.29-.15.41a1,1,0,0,0-.06.24,17,17,0,0,0-.54,4.32q0,.18,0,.66a8.89,8.89,0,0,0,.12,1,3.66,3.66,0,0,0,.27.9q.18.39.45.39a1,1,0,0,0,.81-.56,6.45,6.45,0,0,0,.63-1.29,11.32,11.32,0,0,0,.43-1.48c.11-.5.19-.87.23-1.11s.1-.36.19-.41a.54.54,0,0,1,.26-.07q.42,0,.42.54s0,.14,0,.31A2.44,2.44,0,0,1,779.84,54Z"/><path d="M783,44.3a.39.39,0,0,1-.21.34,1.52,1.52,0,0,1-.47.2l-.49.09-.3,0a2.46,2.46,0,0,1-1.25-.36,3.49,3.49,0,0,1-1.12-1.14l-.18-.24a.46.46,0,0,1-.12-.21c0-.1.07-.19.22-.27l.51-.24a3.42,3.42,0,0,1,.54-.18,1.9,1.9,0,0,1,.35-.06,2.55,2.55,0,0,1,1.18.3,2.17,2.17,0,0,1,1,1.11l.22.31A.75.75,0,0,1,783,44.3Zm3.06,9.09a8.84,8.84,0,0,1-.33,1.5,5.83,5.83,0,0,1-.68,1.45A3.72,3.72,0,0,1,784,57.45a2.88,2.88,0,0,1-1.62.44,2.79,2.79,0,0,1-1.53-.51A2.71,2.71,0,0,1,779.73,56a5.38,5.38,0,0,1-.28-1.68q0-.24,0-.72t0-1.17V49.1c0-.16,0-.33,0-.51a2.73,2.73,0,0,0-.07-.51,1.4,1.4,0,0,0-.11-.27.55.55,0,0,1-.07-.21.23.23,0,0,1,.15-.2,1.15,1.15,0,0,1,.33-.1,3.3,3.3,0,0,1,.51,0h.42a3.53,3.53,0,0,1,.69.11,2,2,0,0,1,.64.28.65.65,0,0,1,.29.56c0,.06,0,.17-.11.33a3.17,3.17,0,0,0-.25.84c0,.16,0,.3-.06.43s0,.28-.06.44,0,.35-.06.58,0,.53-.06.89v1.8c0,.32,0,.64,0,1a4.75,4.75,0,0,0,.13.9,1.49,1.49,0,0,0,.35.66.83.83,0,0,0,.63.26,1.22,1.22,0,0,0,.9-.33,5.59,5.59,0,0,0,.51-.57,3.37,3.37,0,0,0,.51-1.13c.12-.45.23-.91.33-1.39l.06-.3a.5.5,0,0,1,.54-.45q.45,0,.45.63v.15Z"/><path d="M794.57,51.68a1.21,1.21,0,0,1-.17.69,1,1,0,0,1-.43.36,2.25,2.25,0,0,1-.62.16l-.67.08v.15a8.94,8.94,0,0,1-.18,1.59,10.7,10.7,0,0,1-.53,1.86,5.85,5.85,0,0,1-.87,1.56,1.74,1.74,0,0,1-1.24.72l-.3,0h-.3A3.41,3.41,0,0,1,787,58.2a4,4,0,0,1-1.2-1.71,8,8,0,0,1-.48-2.26q-.09-1.23-.09-2.34a27.32,27.32,0,0,1,.51-5.19,3.38,3.38,0,0,0,.6-.11,2.25,2.25,0,0,1,.6-.07h.27l.43,0a2.26,2.26,0,0,1,.41.09q.18.06.18.15a3.58,3.58,0,0,1,0,.4c0,.17-.05.35-.08.54l-.09.56c0,.18,0,.33-.07.45q-.15,1-.24,2.13T787.64,53c0,.28,0,.66.06,1.15a9.07,9.07,0,0,0,.24,1.46,4,4,0,0,0,.52,1.24,1.06,1.06,0,0,0,.92.53,1,1,0,0,0,.87-.56,4.7,4.7,0,0,0,.51-1.29,9.38,9.38,0,0,0,.24-1.47c0-.49.06-.86.06-1.12a.5.5,0,0,0-.2-.33,5.6,5.6,0,0,1-.45-.48,4.09,4.09,0,0,1-.48-.72,2.72,2.72,0,0,1-.28-1v-.63c0-.16,0-.35,0-.57s0-.45.06-.68a6.45,6.45,0,0,1,.12-.66,1.51,1.51,0,0,1,.2-.49s0,0,.1-.09l.23-.12.24-.11.15,0,.25,0,.36.06.36.07.23.08a.37.37,0,0,1,.18.28,1.12,1.12,0,0,0,.09.32,7.53,7.53,0,0,1,.22.88,5.58,5.58,0,0,1,.09.81l0,.84c0,.29,0,.62,0,1,0,.06.09.12.28.19a1.56,1.56,0,0,0,.38.11,1,1,0,0,0,.69-.24q.27-.24.36-.24c.1,0,.16.06.19.19A1.58,1.58,0,0,1,794.57,51.68Z"/><path d="M806.45,54.92a4.13,4.13,0,0,1-.3,1,5.65,5.65,0,0,1-.62,1.09,3.87,3.87,0,0,1-.87.89,1.8,1.8,0,0,1-1.09.36,2.15,2.15,0,0,1-1.58-.69,3.24,3.24,0,0,1-.82-2l-.42,1.11a5.86,5.86,0,0,1-.6,1.17,4,4,0,0,1-.83.91,1.68,1.68,0,0,1-1.09.38.91.91,0,0,1-.27,0l-.2-.08-.24-.07a1.77,1.77,0,0,0-.37,0,1.72,1.72,0,0,1-1.22-.47,3.35,3.35,0,0,1-.79-1.18,6.91,6.91,0,0,1-.44-1.58,10.22,10.22,0,0,1-.13-1.6,28.67,28.67,0,0,1,.19-3.42,13.07,13.07,0,0,1,.65-2.87,5.42,5.42,0,0,1,1.17-2,2.34,2.34,0,0,1,1.74-.73,3,3,0,0,1,.91.1,4.54,4.54,0,0,1,.59.24l.58.29a3.38,3.38,0,0,0,.89.24,2.13,2.13,0,0,1,.88.85,3.25,3.25,0,0,1,.33,1.07,6.54,6.54,0,0,1,0,1.18,6.2,6.2,0,0,0,.06,1.22s0,.05.13.09l.32.13a1,1,0,0,1,.31.21.48.48,0,0,1,.14.35v.12a5.43,5.43,0,0,0-.36,1.38q-.06.6-.06,1.44c0,.28,0,.58,0,.91a6.45,6.45,0,0,0,.15.93,2,2,0,0,0,.32.72.65.65,0,0,0,.54.29.81.81,0,0,0,.64-.36,3.54,3.54,0,0,0,.48-.83,8.07,8.07,0,0,0,.33-.94,5.65,5.65,0,0,0,.17-.72q.06-.36.3-.36a.36.36,0,0,1,.28.16,1,1,0,0,1,.14.59v.22A1.38,1.38,0,0,1,806.45,54.92Zm-5.55-4.86a6,6,0,0,0-.06-.78,3.69,3.69,0,0,0-.21-.84,1.69,1.69,0,0,0-.45-.66,1.17,1.17,0,0,0-.81-.27,1.59,1.59,0,0,0-1.37.76,6.21,6.21,0,0,0-.82,1.8,10.81,10.81,0,0,0-.39,2.13c-.06.73-.09,1.31-.09,1.73s0,.7,0,1.15a9.9,9.9,0,0,0,.17,1.28,3.7,3.7,0,0,0,.34,1,.67.67,0,0,0,.59.42,1.52,1.52,0,0,0,1.33-.68,5,5,0,0,0,.71-1.68,15.26,15.26,0,0,0,.34-2.16c.07-.77.14-1.47.2-2.11a.88.88,0,0,1,.27-.65c.14-.09.21-.15.21-.19Z"/><path d="M806.51,52.76c0-1,0-2.06.09-3.12s.07-2,.12-2.94c0-.16-.17-.27-.48-.33l-1.08-.18a4.73,4.73,0,0,1-1.08-.29.66.66,0,0,1-.48-.64q0-.39.78-.45t2.31-.06c.07,0,.13-.12.16-.36s0-.55.06-.92,0-.76,0-1.18,0-.82,0-1.19a5.13,5.13,0,0,1,.1-.91c0-.24.12-.36.2-.36a4.23,4.23,0,0,1,.54.06c.25,0,.53.09.81.16a3.87,3.87,0,0,1,.73.26c.21.1.32.21.32.33l-.33,3.9c0,.12.1.2.31.25a4.14,4.14,0,0,0,.81.09l1,0a5.87,5.87,0,0,1,1.05.09,2.33,2.33,0,0,1,.81.28.66.66,0,0,1,.32.59.55.55,0,0,1-.06.19c0,.09-.09.14-.15.14a.31.31,0,0,1-.17-.09,1,1,0,0,0-.55-.09l-.66,0-1.14.09c-.4,0-.77.08-1.1.13s-.51.12-.55.2a4,4,0,0,0-.08.7c0,.43-.06,1-.09,1.7s0,1.5-.08,2.41,0,1.87,0,2.87a10,10,0,0,0,.06,1.11,5.24,5.24,0,0,0,.18,1,2.23,2.23,0,0,0,.31.71.57.57,0,0,0,.47.27,1,1,0,0,0,.72-.33,3.2,3.2,0,0,0,.6-.9,8.72,8.72,0,0,0,.48-1.29q.2-.72.36-1.47a2.13,2.13,0,0,1,.21-.65.39.39,0,0,1,.36-.19.56.56,0,0,1,.37.13.82.82,0,0,1,.17.62,2.29,2.29,0,0,1,0,.39c-.06.36-.18.85-.35,1.48a11,11,0,0,1-.69,1.86,6.52,6.52,0,0,1-1.06,1.61,2,2,0,0,1-1.47.69,2.29,2.29,0,0,1-1.42-.47,3.71,3.71,0,0,1-1-1.29,7.58,7.58,0,0,1-.61-2,13.11,13.11,0,0,1-.21-2.41Z"/><path d="M819.65,56.33a1.35,1.35,0,0,1-.48,1.11,3.12,3.12,0,0,1-1.1.57,5.89,5.89,0,0,1-1.23.22c-.41,0-.7.05-.88.05a7.3,7.3,0,0,1-1-.09,7,7,0,0,1-1.2-.29,2.79,2.79,0,0,1-1-.55,1.15,1.15,0,0,1-.4-.9.49.49,0,0,1,.25-.47,1,1,0,0,1,1.14.11l.66.51a6.42,6.42,0,0,0,.77.51,1.87,1.87,0,0,0,1,.24,1.84,1.84,0,0,0,.64-.17.59.59,0,0,0,.41-.58,1.22,1.22,0,0,0-.35-.81,7,7,0,0,0-.87-.81l-1.12-.87a10.59,10.59,0,0,1-1.13-1,5.05,5.05,0,0,1-.87-1.15,2.82,2.82,0,0,1-.34-1.38,2.49,2.49,0,0,1,.67-1.77,5,5,0,0,1,1.59-1.14,7.92,7.92,0,0,1,1.88-.6,8.59,8.59,0,0,1,1.5-.18,2.7,2.7,0,0,1,1,.21.8.8,0,0,1,.51.81,2.75,2.75,0,0,1-.08.52,2.9,2.9,0,0,1-.24.68,2,2,0,0,1-.43.58,1,1,0,0,1-.69.26.34.34,0,0,1-.24-.11,2.91,2.91,0,0,1-.27-.24,3.33,3.33,0,0,0-.32-.24.66.66,0,0,0-.37-.1,1.64,1.64,0,0,0-1.47.61,2.22,2.22,0,0,0-.42,1.31,1.81,1.81,0,0,0,.7,1.26q.7.66,1.56,1.32c.57.44,1.09.87,1.56,1.3A1.79,1.79,0,0,1,819.65,56.33Z"/><path d="M825.2,51.65a5.6,5.6,0,0,0-.74,1.39,15.52,15.52,0,0,0-.5,1.59c-.13.55-.25,1.1-.34,1.65s-.19,1.08-.29,1.58c0,.12-.19.2-.46.24a4.48,4.48,0,0,1-.58.06,5.32,5.32,0,0,1-.89-.06.82.82,0,0,1-.52-.29,1.48,1.48,0,0,1-.27-.69,9.32,9.32,0,0,1-.15-1.24l.38-8.91q0-.39.42-.39a2.52,2.52,0,0,1,.42,0,4.3,4.3,0,0,1,.57.14,1.86,1.86,0,0,1,.51.22.39.39,0,0,1,.21.32v6.09s0-.1.1-.24l.51-1.34a13.76,13.76,0,0,1,.66-1.51,6.48,6.48,0,0,1,.76-1.23,1.1,1.1,0,0,1,.83-.51,1.2,1.2,0,0,1,.82.25,1.65,1.65,0,0,1,.43.65,2.57,2.57,0,0,1,.18.84,8.63,8.63,0,0,1,0,.87c0,.2,0,.53,0,1s-.07,1.15-.07,2.07a5.58,5.58,0,0,0,.16,1.41c.09.42.29.63.59.63a.83.83,0,0,0,.61-.3,3.36,3.36,0,0,0,.49-.75,5.79,5.79,0,0,0,.37-1,4.52,4.52,0,0,0,.19-1c0-.38.17-.57.45-.57a.34.34,0,0,1,.35.18.81.81,0,0,1,.09.42v.06a6.09,6.09,0,0,1-.22,1.35,5.79,5.79,0,0,1-.57,1.41,3.7,3.7,0,0,1-1,1.11,2.42,2.42,0,0,1-1.47.45,1.64,1.64,0,0,1-1.73-1,8.45,8.45,0,0,1-.38-2.89Z"/><path d="M841.54,54.92a4.13,4.13,0,0,1-.3,1,5.6,5.6,0,0,1-.61,1.09,3.87,3.87,0,0,1-.87.89,1.83,1.83,0,0,1-1.1.36,2.13,2.13,0,0,1-1.57-.69,3.25,3.25,0,0,1-.83-2l-.42,1.11a5.86,5.86,0,0,1-.6,1.17,4,4,0,0,1-.82.91,1.71,1.71,0,0,1-1.1.38.91.91,0,0,1-.27,0l-.19-.08-.24-.07a1.87,1.87,0,0,0-.38,0A1.7,1.7,0,0,1,831,58.5a3.37,3.37,0,0,1-.8-1.18,6.91,6.91,0,0,1-.43-1.58,10.29,10.29,0,0,1-.14-1.6,28.61,28.61,0,0,1,.2-3.42,13.09,13.09,0,0,1,.64-2.87,5.42,5.42,0,0,1,1.17-2,2.34,2.34,0,0,1,1.74-.73,3.12,3.12,0,0,1,.92.1,4.39,4.39,0,0,1,.58.24l.59.29a3.29,3.29,0,0,0,.88.24,2.16,2.16,0,0,1,.89.85,3.25,3.25,0,0,1,.33,1.07,6.56,6.56,0,0,1,0,1.18,6.2,6.2,0,0,0,.06,1.22s0,.05.14.09l.31.13a1,1,0,0,1,.32.21.48.48,0,0,1,.13.35v.12a5.43,5.43,0,0,0-.36,1.38q-.06.6-.06,1.44c0,.28,0,.58.05.91a6.45,6.45,0,0,0,.15.93,2,2,0,0,0,.31.72.65.65,0,0,0,.54.29.83.83,0,0,0,.65-.36,3.54,3.54,0,0,0,.48-.83,8.07,8.07,0,0,0,.33-.94,5.24,5.24,0,0,0,.16-.72q.06-.36.3-.36a.38.38,0,0,1,.29.16,1,1,0,0,1,.13.59v.22A1.38,1.38,0,0,1,841.54,54.92ZM836,50.06a6,6,0,0,0-.06-.78,3.69,3.69,0,0,0-.21-.84,1.69,1.69,0,0,0-.45-.66,1.17,1.17,0,0,0-.81-.27,1.58,1.58,0,0,0-1.36.76,6.22,6.22,0,0,0-.83,1.8,10.81,10.81,0,0,0-.39,2.13c-.06.73-.09,1.31-.09,1.73s0,.7.05,1.15a9.94,9.94,0,0,0,.16,1.28,3.69,3.69,0,0,0,.35,1,.66.66,0,0,0,.58.42,1.54,1.54,0,0,0,1.34-.68,5,5,0,0,0,.7-1.68,15.23,15.23,0,0,0,.35-2.16c.07-.77.13-1.47.19-2.11a.88.88,0,0,1,.27-.65c.14-.09.21-.15.21-.19Z"/><path d="M850.93,51.35c0,.16,0,.48-.09,1s-.14,1.08-.24,1.76c-.08.38-.18.82-.31,1.32a7.2,7.2,0,0,1-.53,1.41,3.91,3.91,0,0,1-.82,1.12,1.72,1.72,0,0,1-1.22.47,2.32,2.32,0,0,1-1.18-.27,2.26,2.26,0,0,1-.75-.69,4.85,4.85,0,0,1-.48-.9c-.13-.32-.27-.62-.41-.9a2.3,2.3,0,0,0-.51-.69,1.17,1.17,0,0,0-.81-.27h-.39v1.8a9.79,9.79,0,0,0,.08,1.09,10.41,10.41,0,0,0,.19,1.16,2.36,2.36,0,0,1-.51.1l-.51.05a2.51,2.51,0,0,1-1.18-.18c-.19-.12-.29-.46-.29-1V39.53a2.53,2.53,0,0,0-.07-.68,1.55,1.55,0,0,1-.08-.37c0-.14.1-.26.29-.36A2.64,2.64,0,0,1,842.2,38a4.66,4.66,0,0,1,.89.07,2.42,2.42,0,0,1,.61.2,1.1,1.1,0,0,1,.48.3,16.69,16.69,0,0,0-.31,2c-.09.84-.17,1.74-.23,2.71s-.1,1.94-.13,2.91,0,1.85,0,2.63c.08-.18.21-.47.38-.87a8.93,8.93,0,0,1,.61-1.19,5,5,0,0,1,.84-1,1.54,1.54,0,0,1,1.08-.45,1.39,1.39,0,0,1,1.07.4,2.4,2.4,0,0,1,.54,1,4.85,4.85,0,0,1,.19,1.14c0,.39,0,.72,0,1a4.48,4.48,0,0,1-.24,1.35,6.89,6.89,0,0,1-1.71,2.79,4.19,4.19,0,0,1-1.29.9,3,3,0,0,1,.92.48,2.88,2.88,0,0,1,.76.93,2.21,2.21,0,0,1,.24.54,4.79,4.79,0,0,0,.21.57,1.48,1.48,0,0,0,.3.45.69.69,0,0,0,.51.18.93.93,0,0,0,.77-.45,4.23,4.23,0,0,0,.54-1.22,14.62,14.62,0,0,0,.39-1.78c.11-.68.21-1.39.31-2.13a1,1,0,0,1,.21-.56.44.44,0,0,1,.3-.13Q850.93,50.66,850.93,51.35Zm-4.5-1.47c0-.16,0-.34.05-.53s0-.39,0-.61a4.93,4.93,0,0,0-.1-1.07c-.07-.31-.22-.46-.44-.46a1.35,1.35,0,0,0-1,.54,5.37,5.37,0,0,0-.85,1.36,9.23,9.23,0,0,0-.6,1.86,9.58,9.58,0,0,0-.23,2,.29.29,0,0,0,.06.19c0,.05.16.08.36.08a1.91,1.91,0,0,0,1-.29,2.94,2.94,0,0,0,.82-.76,4.64,4.64,0,0,0,.6-1.1A4.58,4.58,0,0,0,846.43,49.88Z"/></g><g id="Kompas"><circle class="cls-6" cx="1220.75" cy="51.25" r="27.25"/><polygon class="cls-7" points="1223.76 47.64 1217.74 47.52 1233.98 35.36 1224.96 53.53 1223.76 47.64"/><polygon class="cls-8" points="1217.74 54.86 1216.54 48.97 1207.52 67.14 1223.76 54.98 1217.74 54.86"/></g><g id="Hjerte"><path class="cls-9" d="M1345.21,79.56,1322,58.11a17.61,17.61,0,0,1-3.51-21.72,20.1,20.1,0,0,1,1.79-2.59c8.32-10.4,22.88-4.16,25,4.16"/><path class="cls-9" d="M1345.29,79.56l23.23-21.45A17.62,17.62,0,0,0,1372,36.39a22.33,22.33,0,0,0-1.79-2.59c-8.32-10.4-22.88-4.16-25,4.16"/></g><g id="Profil"><circle class="cls-9" cx="1464.32" cy="36.55" r="9.6"/><path class="cls-9" d="M1442.51,77.56V61.35a11.3,11.3,0,0,1,11.27-11.27h21.15a11.3,11.3,0,0,1,11.27,11.27V77.56"/></g></svg>