<svg xmlns="http://www.w3.org/2000/svg" xmlns:xlink="http://www.w3.org/1999/xlink" width="700" height="800" viewBox="0 0 700 800"><defs><style>.cls-1,.cls-24,.cls-3,.cls-4{fill:none;}.cls-2{fill:#fff;}.cls-3,.cls-4{stroke:#000;}.cls-24,.cls-3,.cls-4{stroke-miterlimit:10;}.cls-3{stroke-width:2px;}.cls-5{clip-path:url(#clip-path);}.cls-6{fill:#f3ce03;}.cls-7{fill:#d6aa83;}.cls-8{fill:#ed0f25;}.cls-9{fill:#216287;}.cls-10{fill:#a76fd8;}.cls-11{fill:#594b4b;}.cls-12{fill:#945f39;}.cls-13{fill:#7d3ab0;}.cls-14{fill:#1f2531;}.cls-15{fill:#4e2175;}.cls-16{fill:#603d25;}.cls-17{fill:#efecdf;}.cls-18{fill:#b37950;}.cls-19{fill:#613427;}.cls-20{fill:#f00218;}.cls-21{fill:#ce9065;}.cls-22{fill:#f92841;}.cls-23{fill:#8c6239;}.cls-24{stroke:#8c6239;}</style><clipPath id="clip-path"><circle class="cls-1" cx="80" cy="71.5" r="55.5"/></clipPath></defs><title>eksiundetøj</title><g id="Layer_12" data-name="Layer 12"><rect class="cls-2" x="-0.5" width="700" height="800"/><path class="cls-3" d="M37,752.5,25.5,741s-3.5-5.5.5-9.5,9-3,12,2c0,0,3-8,11-3,0,0,6,5,0,12l-11,10Z"/><path class="cls-3" d="M99.5,752s-20.5,4.5-19-12c0,0-1-12,12-12s13,10,13,13a12.68,12.68,0,0,1-2,6l2,7Z"/><polyline class="cls-3" points="136.5 741 136.5 752 138.5 754 157.5 754 159.5 752 159.5 741"/><polyline class="cls-3" points="147.5 745 147.5 727 142.5 732"/><line class="cls-3" x1="147.5" y1="727" x2="153.5" y2="732"/><rect class="cls-4" x="-1" y="194.5" width="700" height="500"/><polygon class="cls-3" points="643 754.5 643 727.5 664 727.5 664 754.5 653 747.5 643 754.5"/><path d="M174.35,99a7.31,7.31,0,0,1-3.56.8,6,6,0,0,1-6.07-6.25c0-4.11,2.86-7.67,7.31-7.67a5.54,5.54,0,0,1,5.81,5.77c0,3-1.67,4.76-3.55,4.76a1.48,1.48,0,0,1-1.49-1.75h-.06a3.16,3.16,0,0,1-2.83,1.75,2.26,2.26,0,0,1-2.16-2.51,4.72,4.72,0,0,1,4.73-4.75,5.29,5.29,0,0,1,2.15.42L174,93.14c-.3,1.53-.08,2.23.6,2.25,1,0,2.16-1.34,2.16-3.65,0-2.91-1.74-5-4.86-5s-6,2.58-6,6.64c0,3.33,2.18,5.41,5.13,5.41a6.34,6.34,0,0,0,3-.71Zm-1.09-8.63a2.82,2.82,0,0,0-1-.16,3.45,3.45,0,0,0-3.19,3.61c0,.88.45,1.52,1.32,1.52,1.16,0,2.22-1.49,2.44-2.72Z"/><path d="M181.06,93.15a3.08,3.08,0,0,0,3.31,3.36,6.49,6.49,0,0,0,2.68-.5l.31,1.25a7.83,7.83,0,0,1-3.23.62A4.51,4.51,0,0,1,179.37,93c0-2.94,1.72-5.23,4.55-5.23,3.16,0,4,2.77,4,4.55a4.27,4.27,0,0,1-.06.83Zm5.15-1.27c0-1.1-.46-2.84-2.43-2.84a2.88,2.88,0,0,0-2.7,2.84Z"/><path d="M190.09,90.61c0-1,0-1.81-.08-2.61h1.53l.09,1.55h.05a3.35,3.35,0,0,1,3.06-1.78,2.84,2.84,0,0,1,2.72,1.94h0a4,4,0,0,1,1.1-1.26,3.27,3.27,0,0,1,2.12-.68c1.3,0,3.2.84,3.2,4.2v5.7H202.2V92.2c0-1.88-.69-3-2.1-3A2.3,2.3,0,0,0,198,90.8a2.7,2.7,0,0,0-.15.88v6h-1.71V91.86c0-1.54-.68-2.65-2-2.65a2.45,2.45,0,0,0-2.2,1.76,3,3,0,0,0-.13.87v5.83h-1.72Z"/><path d="M208.74,85.26a1.06,1.06,0,0,1-1.12,1.09,1,1,0,0,1-1.06-1.09,1.07,1.07,0,0,1,1.09-1.09A1.06,1.06,0,0,1,208.74,85.26Zm-2,12.41V88h1.75v9.67Z"/><path d="M211.45,83.47h1.75v14.2h-1.75Z"/><path d="M218.14,85.26A1.06,1.06,0,0,1,217,86.35,1,1,0,0,1,216,85.26a1.07,1.07,0,0,1,1.09-1.09A1.06,1.06,0,0,1,218.14,85.26Zm-2,12.41V88h1.75v9.67Z"/><path d="M221.84,93.15a3.08,3.08,0,0,0,3.31,3.36,6.49,6.49,0,0,0,2.68-.5l.31,1.25a7.83,7.83,0,0,1-3.23.62A4.51,4.51,0,0,1,220.15,93c0-2.94,1.73-5.23,4.55-5.23,3.16,0,4,2.77,4,4.55a4.27,4.27,0,0,1-.06.83ZM227,91.88c0-1.1-.46-2.84-2.43-2.84a2.88,2.88,0,0,0-2.7,2.84Z"/><path d="M228.5,100.47a2.79,2.79,0,0,0,1.92-.75c.48-.54.68-1.31.68-3.63V88h1.75v8.76c0,1.89-.3,3.11-1.16,4a4.5,4.5,0,0,1-3,1.1Zm4.56-15.21a1.06,1.06,0,0,1-1.12,1.09,1,1,0,0,1-1.06-1.09A1.07,1.07,0,0,1,232,84.17,1.05,1.05,0,0,1,233.06,85.26Z"/><path d="M235.9,97.67V89.33h-1.35V88h1.35v-.47A4.63,4.63,0,0,1,237,84.14a3.35,3.35,0,0,1,2.35-.89,3.81,3.81,0,0,1,1.5.28l-.23,1.35a2.64,2.64,0,0,0-1.13-.22c-1.48,0-1.88,1.32-1.88,2.81V88H240v1.33h-2.33v8.34Z"/><path d="M164.14,47.7a28,28,0,0,1,5-.41c2.56,0,4.46.6,5.66,1.68a5.51,5.51,0,0,1,1.78,4.24A5.92,5.92,0,0,1,175,57.53a8.35,8.35,0,0,1-6.18,2.22,8.48,8.48,0,0,1-2.11-.19v8.11h-2.61Zm2.61,9.73a8,8,0,0,0,2.17.23c3.16,0,5.07-1.55,5.07-4.32s-1.91-4-4.77-4a13.51,13.51,0,0,0-2.47.2Z"/><path d="M180,57.68c0-1.71,0-3.17-.12-4.52h2.31l.1,2.85h.1a4.39,4.39,0,0,1,4-3.18,2.82,2.82,0,0,1,.73.08v2.48a4,4,0,0,0-.9-.08c-1.86,0-3.17,1.4-3.53,3.38a6.78,6.78,0,0,0-.11,1.23v7.75H180Z"/><path d="M192.78,49.06a1.64,1.64,0,1,1-3.27,0,1.6,1.6,0,0,1,1.64-1.64A1.57,1.57,0,0,1,192.78,49.06Zm-2.95,18.61V53.16h2.63V67.67Z"/><path d="M197.87,53.16l2.84,8.14c.49,1.34.87,2.54,1.19,3.74H202c.33-1.2.75-2.41,1.22-3.74L206,53.16h2.75l-5.7,14.51h-2.52L195,53.16Z"/><path d="M219.33,67.67l-.23-1.83H219A5.41,5.41,0,0,1,214.58,68a4.14,4.14,0,0,1-4.43-4.16c0-3.52,3.11-5.45,8.72-5.41v-.31c0-1.18-.34-3.36-3.31-3.34a7.06,7.06,0,0,0-3.78,1.08l-.6-1.76A9.2,9.2,0,0,1,216,52.83c4.44,0,5.52,3,5.52,5.94V64.2a21.78,21.78,0,0,0,.22,3.47Zm-.41-7.41c-2.86-.06-6.13.45-6.13,3.26A2.32,2.32,0,0,0,215.26,66a3.63,3.63,0,0,0,3.53-2.42,2.87,2.87,0,0,0,.13-.84Z"/><path d="M228.91,49v4.18h3.79v2h-3.79V63c0,1.81.52,2.83,2,2.83a5.42,5.42,0,0,0,1.52-.19l.12,2a6.75,6.75,0,0,1-2.35.36,3.72,3.72,0,0,1-2.85-1.11,5.54,5.54,0,0,1-1-3.79V55.16h-2.25v-2h2.25V49.67Z"/><path d="M235.3,65a7.13,7.13,0,0,0,3.5,1c1.92,0,2.82-1,2.82-2.16s-.77-1.94-2.7-2.66c-2.62-1-3.86-2.38-3.86-4.12,0-2.33,1.9-4.25,5-4.25a7.08,7.08,0,0,1,3.56.89L243,55.64a5.7,5.7,0,0,0-3-.85c-1.56,0-2.41.9-2.41,2s.86,1.74,2.76,2.47c2.5.93,3.8,2.2,3.8,4.36,0,2.57-2,4.37-5.42,4.37a8.28,8.28,0,0,1-4.08-1Z"/><path d="M247.55,57.08c0-1.51-.05-2.72-.12-3.92h2.33l.15,2.39H250a5.35,5.35,0,0,1,4.8-2.72c2,0,5.11,1.2,5.11,6.18v8.66h-2.62V59.3c0-2.34-.89-4.31-3.35-4.31a3.8,3.8,0,0,0-3.56,2.71,4.09,4.09,0,0,0-.18,1.23v8.74h-2.63Z"/><path d="M272.25,67.67,272,65.84h-.07A5.42,5.42,0,0,1,267.5,68a4.14,4.14,0,0,1-4.43-4.16c0-3.52,3.11-5.45,8.72-5.41v-.31c0-1.18-.34-3.36-3.31-3.34a7.06,7.06,0,0,0-3.78,1.08l-.6-1.76a9.17,9.17,0,0,1,4.79-1.27c4.44,0,5.52,3,5.52,5.94V64.2a21.78,21.78,0,0,0,.22,3.47Zm-.41-7.41c-2.86-.06-6.13.45-6.13,3.26A2.32,2.32,0,0,0,268.18,66a3.63,3.63,0,0,0,3.53-2.42,2.87,2.87,0,0,0,.13-.84Z"/><path d="M281.28,59.81h.06c.35-.51.85-1.15,1.27-1.65l4.27-5h3.17l-5.6,6,6.39,8.54h-3.22l-5-7-1.35,1.51v5.46h-2.62V46.37h2.62Z"/><path d="M39,157.8a12.12,12.12,0,0,1-4.15.74,6.87,6.87,0,0,1-5-1.78,6.89,6.89,0,0,1-1.88-5c0-4,2.78-7,7.29-7a8.45,8.45,0,0,1,3.38.62l-.44,1.42a6.84,6.84,0,0,0-3-.58,5,5,0,0,0-5.41,5.42c0,3.41,2.05,5.44,5.2,5.44a5.5,5.5,0,0,0,2.32-.37v-4H34.56v-1.4H39Z"/><path d="M47,158.41l-.15-1.22h0a3.63,3.63,0,0,1-3,1.44,2.76,2.76,0,0,1-3-2.78c0-2.34,2.08-3.63,5.81-3.6V152a2,2,0,0,0-2.2-2.23,4.73,4.73,0,0,0-2.52.72l-.4-1.17a6.13,6.13,0,0,1,3.19-.84c3,0,3.68,2,3.68,4v3.61a14.9,14.9,0,0,0,.15,2.32Zm-.27-4.94c-1.91,0-4.09.3-4.09,2.17a1.55,1.55,0,0,0,1.65,1.69,2.42,2.42,0,0,0,2.35-1.62,1.64,1.64,0,0,0,.09-.56Z"/><path d="M51.23,151.35c0-1,0-1.81-.08-2.61h1.53l.09,1.55h0a3.33,3.33,0,0,1,3-1.77,2.84,2.84,0,0,1,2.73,1.94h0a3.81,3.81,0,0,1,1.09-1.26,3.31,3.31,0,0,1,2.13-.68c1.29,0,3.19.83,3.19,4.19v5.7H63.34v-5.47c0-1.88-.69-3-2.1-3a2.3,2.3,0,0,0-2.1,1.58,3,3,0,0,0-.14.88v6H57.28V152.6c0-1.54-.68-2.64-2-2.64a2.43,2.43,0,0,0-2.19,1.75,2.73,2.73,0,0,0-.13.87v5.83H51.23Z"/><path d="M67.91,151.35c0-1,0-1.81-.08-2.61h1.53l.09,1.55h0a3.33,3.33,0,0,1,3-1.77,2.84,2.84,0,0,1,2.73,1.94h0a3.81,3.81,0,0,1,1.09-1.26,3.31,3.31,0,0,1,2.13-.68c1.29,0,3.19.83,3.19,4.19v5.7H80v-5.47c0-1.88-.69-3-2.1-3a2.3,2.3,0,0,0-2.1,1.58,3,3,0,0,0-.14.88v6H74V152.6c0-1.54-.68-2.64-2-2.64a2.43,2.43,0,0,0-2.19,1.75,2.73,2.73,0,0,0-.13.87v5.83H67.91Z"/><path d="M85.57,153.89a3.09,3.09,0,0,0,3.31,3.36,6.49,6.49,0,0,0,2.68-.5l.31,1.25a7.63,7.63,0,0,1-3.23.62,4.51,4.51,0,0,1-4.76-4.88c0-2.93,1.73-5.22,4.56-5.22,3.15,0,4,2.77,4,4.55a4.15,4.15,0,0,1-.06.82Zm5.15-1.27c0-1.1-.45-2.84-2.42-2.84a2.89,2.89,0,0,0-2.71,2.84Z"/><path d="M94.61,144.21h1.75v14.2H94.61Z"/><path d="M101.44,146v2.79H104v1.33h-2.53v5.21c0,1.21.35,1.89,1.33,1.89a3.51,3.51,0,0,0,1-.13l.08,1.34a4.61,4.61,0,0,1-1.57.24,2.49,2.49,0,0,1-1.9-.74,3.7,3.7,0,0,1-.68-2.53v-5.28h-1.5v-1.33h1.5v-2.33Z"/><path d="M110.1,158.41c.05-.66.08-1.63.08-2.49V144.21h1.75v6.08h0a3.58,3.58,0,0,1,3.3-1.77c2.41,0,4.1,2,4.09,4.92,0,3.47-2.2,5.19-4.36,5.19a3.49,3.49,0,0,1-3.24-1.81h-.05l-.09,1.59Zm1.83-3.88a2.67,2.67,0,0,0,.08.64,2.72,2.72,0,0,0,2.64,2.06c1.85,0,2.93-1.5,2.93-3.72,0-1.95-1-3.61-2.88-3.61a2.82,2.82,0,0,0-2.67,2.16,3.22,3.22,0,0,0-.1.73Z"/><path d="M123.53,146a1.09,1.09,0,1,1-2.18,0,1.07,1.07,0,0,1,1.1-1.09A1,1,0,0,1,123.53,146Zm-2,12.41v-9.67h1.75v9.67Z"/><path d="M126.25,144.21H128v14.2h-1.75Z"/><path d="M131,144.21h1.75v14.2H131Z"/><path d="M136.67,153.89a3.09,3.09,0,0,0,3.31,3.36,6.49,6.49,0,0,0,2.68-.5L143,158a7.67,7.67,0,0,1-3.23.62,4.51,4.51,0,0,1-4.76-4.88c0-2.93,1.73-5.22,4.55-5.22,3.16,0,4,2.77,4,4.55a4.15,4.15,0,0,1-.06.82Zm5.15-1.27c0-1.1-.45-2.84-2.43-2.84a2.89,2.89,0,0,0-2.7,2.84Z"/><path d="M154.06,144.21v11.71c0,.86,0,1.82.08,2.49h-1.57l-.09-1.67h0a3.56,3.56,0,0,1-3.29,1.89c-2.34,0-4.15-2-4.15-4.92,0-3.23,2-5.19,4.35-5.19a3.25,3.25,0,0,1,2.92,1.46h0v-5.77Zm-1.75,8.46a3.19,3.19,0,0,0-.08-.75,2.59,2.59,0,0,0-2.54-2c-1.83,0-2.92,1.59-2.92,3.72,0,2,1,3.6,2.88,3.6a2.65,2.65,0,0,0,2.57-2.12,3,3,0,0,0,.09-.75Z"/><path d="M158,153.89a3.09,3.09,0,0,0,3.31,3.36,6.49,6.49,0,0,0,2.68-.5l.31,1.25a7.67,7.67,0,0,1-3.23.62,4.51,4.51,0,0,1-4.76-4.88c0-2.93,1.73-5.22,4.55-5.22,3.16,0,4,2.77,4,4.55a5.11,5.11,0,0,1-.06.82Zm5.15-1.27c0-1.1-.45-2.84-2.43-2.84a2.89,2.89,0,0,0-2.7,2.84Z"/><path d="M176.61,158.41l-.15-1.22h-.06a3.6,3.6,0,0,1-3,1.44,2.76,2.76,0,0,1-2.95-2.78c0-2.34,2.07-3.63,5.81-3.6V152a2,2,0,0,0-2.2-2.23,4.73,4.73,0,0,0-2.52.72l-.4-1.17a6.13,6.13,0,0,1,3.19-.84c3,0,3.68,2,3.68,4v3.61a14.9,14.9,0,0,0,.15,2.32Zm-.27-4.94c-1.91,0-4.09.3-4.09,2.17a1.55,1.55,0,0,0,1.65,1.69,2.42,2.42,0,0,0,2.35-1.62,1.92,1.92,0,0,0,.09-.56Z"/><path d="M181.06,158.41v-8.34h-1.35v-1.33h1.35v-.47a4.64,4.64,0,0,1,1.12-3.39,3.37,3.37,0,0,1,2.35-.89,3.86,3.86,0,0,1,1.51.28l-.24,1.35a2.61,2.61,0,0,0-1.13-.22c-1.48,0-1.87,1.32-1.87,2.81v.53h2.34v1.33h-2.33v8.34Z"/><path d="M191,151.35c0-1,0-1.81-.08-2.61h1.52l.1,1.55h.05a3.32,3.32,0,0,1,3.05-1.77,2.85,2.85,0,0,1,2.73,1.94h0a3.81,3.81,0,0,1,1.09-1.26,3.27,3.27,0,0,1,2.13-.68c1.29,0,3.19.83,3.19,4.19v5.7h-1.72v-5.47c0-1.88-.69-3-2.1-3a2.3,2.3,0,0,0-2.09,1.58,3,3,0,0,0-.14.88v6H197V152.6c0-1.54-.68-2.64-2-2.64a2.42,2.42,0,0,0-2.19,1.75,2.74,2.74,0,0,0-.14.87v5.83H191Z"/><path d="M209.61,146a1.09,1.09,0,1,1-1.09-1.09A1.06,1.06,0,0,1,209.61,146Zm-2,12.41v-9.67h1.75v9.67Z"/><path d="M212.33,151.35c0-1,0-1.81-.08-2.61h1.55l.1,1.59h0a3.56,3.56,0,0,1,3.2-1.81c1.32,0,3.4.8,3.4,4.12v5.77H218.8v-5.58c0-1.56-.59-2.87-2.23-2.87a2.52,2.52,0,0,0-2.37,1.8,2.57,2.57,0,0,0-.12.82v5.83h-1.75Z"/><path d="M228.65,153.89a3.08,3.08,0,0,0,3.31,3.36,6.49,6.49,0,0,0,2.68-.5L235,158a7.67,7.67,0,0,1-3.23.62,4.51,4.51,0,0,1-4.76-4.88c0-2.93,1.73-5.22,4.55-5.22,3.16,0,4,2.77,4,4.55a4.15,4.15,0,0,1-.06.82Zm5.15-1.27c0-1.1-.45-2.84-2.43-2.84a2.89,2.89,0,0,0-2.7,2.84Z"/><path d="M239.43,153.17h0c.24-.34.57-.77.85-1.1l2.85-3.33h2.11l-3.74,4,4.26,5.7h-2.14l-3.33-4.65-.9,1v3.64h-1.75v-14.2h1.75Z"/><path d="M246.82,156.62a4.79,4.79,0,0,0,2.33.69c1.28,0,1.88-.63,1.88-1.44s-.51-1.29-1.8-1.77c-1.75-.64-2.58-1.59-2.57-2.75,0-1.56,1.26-2.83,3.35-2.83a4.69,4.69,0,0,1,2.37.59l-.44,1.28a3.83,3.83,0,0,0-2-.57c-1,0-1.6.6-1.6,1.33s.57,1.16,1.84,1.65c1.67.62,2.53,1.46,2.54,2.91,0,1.71-1.34,2.91-3.62,2.91a5.52,5.52,0,0,1-2.72-.67Z"/><path d="M256.73,153.17h0c.24-.34.57-.77.85-1.1l2.85-3.33h2.11l-3.74,4,4.26,5.7H261l-3.33-4.65-.9,1v3.64H255v-14.2h1.75Z"/><path d="M271.09,153.75c0,2.3,1.28,3.51,3.1,3.51a5.84,5.84,0,0,0,2.62-.54l.33,1.24a7.1,7.1,0,0,1-3.17.67,3.8,3.8,0,0,1-3.68-2.15h-.05a3.77,3.77,0,0,1-3.6,2.15,2.76,2.76,0,0,1-3-2.76c0-2.24,2.08-3.55,5.83-3.5V152a2.12,2.12,0,0,0-2.25-2.15,4.66,4.66,0,0,0-2.49.73l-.41-1.16a6,6,0,0,1,3-.87,2.92,2.92,0,0,1,3.12,2h.05a3.66,3.66,0,0,1,3.37-2c3,0,3.78,2.85,3.78,4.45a4.11,4.11,0,0,1-.06.78Zm-1.6-.2c-1.86,0-4.14.29-4.14,2.18a1.56,1.56,0,0,0,1.68,1.59,2.35,2.35,0,0,0,2.36-1.65,2.32,2.32,0,0,0,.1-.7ZM276,152.5c.05-1-.49-2.74-2.27-2.74a2.74,2.74,0,0,0-2.59,2.74Z"/><path d="M279.82,151.75c0-1.14,0-2.12-.08-3h1.54l.07,1.89h.06a2.94,2.94,0,0,1,2.7-2.11,1.89,1.89,0,0,1,.49,0v1.65a2.69,2.69,0,0,0-.6-.05,2.46,2.46,0,0,0-2.36,2.25,5.33,5.33,0,0,0-.07.82v5.17h-1.75Z"/><path d="M287.35,153.89a3.08,3.08,0,0,0,3.31,3.36,6.49,6.49,0,0,0,2.68-.5l.31,1.25a7.67,7.67,0,0,1-3.23.62,4.51,4.51,0,0,1-4.76-4.88c0-2.93,1.73-5.22,4.55-5.22,3.16,0,4,2.77,4,4.55a4.15,4.15,0,0,1-.06.82Zm5.15-1.27c0-1.1-.46-2.84-2.43-2.84a2.89,2.89,0,0,0-2.7,2.84Z"/><path d="M296.13,156.62a4.86,4.86,0,0,0,2.34.69c1.28,0,1.88-.63,1.88-1.44s-.52-1.29-1.8-1.77c-1.75-.64-2.58-1.59-2.57-2.75,0-1.56,1.26-2.83,3.35-2.83a4.62,4.62,0,0,1,2.36.59l-.43,1.28a3.83,3.83,0,0,0-2-.57c-1,0-1.6.6-1.6,1.33s.57,1.16,1.84,1.65c1.66.62,2.53,1.46,2.54,2.91,0,1.71-1.34,2.91-3.62,2.91a5.52,5.52,0,0,1-2.72-.67Z"/><path d="M306.42,146v2.79h2.52v1.33h-2.52v5.21c0,1.21.34,1.89,1.33,1.89a3.61,3.61,0,0,0,1-.13l.08,1.34a4.67,4.67,0,0,1-1.58.24,2.47,2.47,0,0,1-1.89-.74,3.7,3.7,0,0,1-.69-2.53v-5.28h-1.5v-1.33h1.5v-2.33Z"/><path d="M311.91,153.89a3.08,3.08,0,0,0,3.31,3.36,6.49,6.49,0,0,0,2.68-.5l.31,1.25a7.67,7.67,0,0,1-3.23.62,4.51,4.51,0,0,1-4.76-4.88c0-2.93,1.73-5.22,4.55-5.22,3.16,0,4,2.77,4,4.55a4.15,4.15,0,0,1-.06.82Zm5.15-1.27c0-1.1-.46-2.84-2.43-2.84a2.88,2.88,0,0,0-2.7,2.84Z"/><path d="M327.15,146a1.06,1.06,0,0,1-1.12,1.09A1,1,0,0,1,325,146a1.07,1.07,0,0,1,1.09-1.09A1.05,1.05,0,0,1,327.15,146Zm-2,12.41v-9.67h1.75v9.67Z"/><path d="M342.19,155.76c0,1,0,1.88.08,2.65h-1.55l-.1-1.58h0a3.62,3.62,0,0,1-3.21,1.8c-1.51,0-3.33-.85-3.33-4.24v-5.65h1.75v5.34c0,1.84.58,3.1,2.17,3.1a2.56,2.56,0,0,0,2.32-1.62,2.68,2.68,0,0,0,.16-.9v-5.92h1.75Z"/><path d="M345.12,151.35c0-1,0-1.81-.08-2.61h1.56l.1,1.59h0a3.58,3.58,0,0,1,3.2-1.81c1.33,0,3.41.8,3.41,4.12v5.77H351.6v-5.58c0-1.56-.59-2.87-2.23-2.87a2.52,2.52,0,0,0-2.37,1.8,2.56,2.56,0,0,0-.13.82v5.83h-1.75Z"/><path d="M364.57,144.21v11.71c0,.86,0,1.82.08,2.49h-1.56l-.09-1.67H363a3.54,3.54,0,0,1-3.28,1.89c-2.34,0-4.15-2-4.15-4.92,0-3.23,2-5.19,4.35-5.19a3.22,3.22,0,0,1,2.91,1.46h0v-5.77Zm-1.75,8.46a3.81,3.81,0,0,0-.07-.75,2.59,2.59,0,0,0-2.55-2c-1.82,0-2.91,1.59-2.91,3.72,0,2,1,3.6,2.88,3.6a2.67,2.67,0,0,0,2.57-2.12,3,3,0,0,0,.08-.75Z"/><path d="M368.49,153.89a3.08,3.08,0,0,0,3.31,3.36,6.49,6.49,0,0,0,2.68-.5l.31,1.25a7.67,7.67,0,0,1-3.23.62,4.51,4.51,0,0,1-4.76-4.88c0-2.93,1.73-5.22,4.55-5.22,3.16,0,4,2.77,4,4.55a4.15,4.15,0,0,1-.06.82Zm5.15-1.27c0-1.1-.46-2.84-2.43-2.84a2.88,2.88,0,0,0-2.7,2.84Z"/><path d="M377.52,151.75c0-1.14,0-2.12-.08-3H379l.07,1.89h.06a2.94,2.94,0,0,1,2.7-2.11,1.82,1.82,0,0,1,.48,0v1.65a2.54,2.54,0,0,0-.59-.05,2.46,2.46,0,0,0-2.36,2.25,5.33,5.33,0,0,0-.07.82v5.17h-1.75Z"/><path d="M386.17,146v2.79h2.53v1.33h-2.53v5.21c0,1.21.35,1.89,1.33,1.89a3.51,3.51,0,0,0,1-.13l.09,1.34a4.67,4.67,0,0,1-1.58.24,2.49,2.49,0,0,1-1.9-.74,3.75,3.75,0,0,1-.68-2.53v-5.28H383v-1.33h1.5v-2.33Z"/><path d="M397.2,149.2,398,148l.79.54-.86,1.25a5,5,0,0,1,1.47,3.71c0,3.54-2.46,5.13-4.73,5.13a4.49,4.49,0,0,1-2.46-.68l-.88,1.22-.73-.61.83-1.2a5,5,0,0,1-1.49-3.73c0-3.21,2.12-5.11,4.75-5.11A4.59,4.59,0,0,1,397.2,149.2Zm-.8,1.22a2.51,2.51,0,0,0-1.7-.59c-2.15,0-3,2-3,3.76a4.17,4.17,0,0,0,.7,2.42h0ZM393,156.75a2.41,2.41,0,0,0,1.62.56c1.84,0,3.07-1.59,3.07-3.76a4.37,4.37,0,0,0-.69-2.36h0Z"/><path d="M399.29,161.21a2.79,2.79,0,0,0,1.92-.75c.48-.54.68-1.31.68-3.63v-8.09h1.75v8.77c0,1.88-.3,3.1-1.16,4a4.54,4.54,0,0,1-3,1.09ZM403.85,146a1.06,1.06,0,0,1-1.12,1.09,1,1,0,0,1-1.06-1.09,1.07,1.07,0,0,1,1.11-1.09A1.05,1.05,0,0,1,403.85,146Z"/><path d="M410.35,150.32a1.18,1.18,0,0,1,1.19-1.26,1.26,1.26,0,0,1,0,2.51A1.17,1.17,0,0,1,410.35,150.32Zm0,7.06a1.18,1.18,0,0,1,1.19-1.26,1.26,1.26,0,0,1,0,2.51A1.17,1.17,0,0,1,410.35,157.38Z"/><path d="M413.84,160.82a13.48,13.48,0,0,0,2.51-8.17,13.29,13.29,0,0,0-2.51-8.13h1.37a12.89,12.89,0,0,1,2.62,8.15,13.11,13.11,0,0,1-2.62,8.15Z"/><g class="cls-5"><rect class="cls-6" x="-28" y="-0.5" width="255" height="255" rx="12"/><polygon class="cls-7" points="68.67 79.79 68.39 90.92 89.34 90.92 89.34 80.15 68.67 79.79"/><path class="cls-8" d="M57.16,176.23a41,41,0,0,0,6.29,9.44H91.63a46.25,46.25,0,0,0,.71-7.94C92.34,159,78.87,96.9,78.87,96.9L68.39,86.5s-8.23,2.92-8.23,8.16c0,0-15.72,3-17.22,6.73s-20.2,38.92-20.2,38.92-6.74.75-6,8.23A34.16,34.16,0,0,1,40,153.78s2.25-.75,2.25-6,9-15.71,9-15.71S58.66,167.25,57.16,176.23Z"/><path class="cls-7" d="M60.16,55S56.41,82.68,79.61,82.68c0,0,17.57.63,18.81-18.79a38.17,38.17,0,0,0-.1-5.9C96.08,32.54,78.87,32.54,78.87,32.54S63.15,29.55,60.16,55Z"/><path class="cls-9" d="M70.63,35.54s21,15,22.46,18.71c0,0,1.46-1.64,0-7.49-.75-3,2.47-3.18,5,11.88L98.32,61a49.28,49.28,0,0,0,3-16.46,7.46,7.46,0,0,1,.75,2.24,20.3,20.3,0,0,0,0-7.48c-.75-3.74-5.24-8.23-6.74-8.23s4.49-.75,4.49,0c0,0-9-6.74-18.71-6s-9.73,2.24-13.47,6c0,0-5.24-3-9,4.49L57.91,37l1.5-.75s-3.74,5.24-1.5,10.48a2.62,2.62,0,0,0,.75-1.5c0-.74,0,5.24.75,6,0,0,.88,10.16,1.5,11.23,0,0,2.24-9.73,4.49-10.48S71.38,36.28,70.63,35.54Z"/><path class="cls-7" d="M98.36,64.74s5.2-.77,4.45-6-3-3.75-3-3.75l-1.5,4.49Z"/><path class="cls-7" d="M59.93,54.27s-3.52,0-3.52,4.47,2.52,6.3,3.88,5.76S60.16,55,60.16,55Z"/><path class="cls-8" d="M109.14,185.67c-2.11-9.95-10.82-56.59-10.82-56.59s8.24,8.24,6.74,12,2.25,3,2.25,3c6.73-3,16.46,0,16.46,0,3.74-4.49-2.25-8.23-2.25-8.23s-17.21-35.17-16.46-38.17-10.48-6.73-10.48-6.73c.75-3.75-5.24-4.42-5.24-4.42,2.24,2.29,8.24,66.75,11.13,99.17Z"/><path class="cls-2" d="M85,127.15s4.34,20.64,6.32,37.94c1.38,12.07.84,18.06.39,20.58h8.76L98.31,162,95.84,136.3l-1.73-16.68L91.32,96.24a29.76,29.76,0,0,0-2-9.81v4.49H72.84l6,6Z"/></g><rect class="cls-10" x="-1" y="195" width="700" height="500"/><rect class="cls-11" x="-2.03" y="550" width="704.9" height="145"/><path class="cls-12" d="M490.32,512.12V416.19s-283.22-3.43-286.64,0,0,95.93,0,95.93L214,503l10.46.11s7-12.32-1.72-18.21l.4-5.88,114.65,24.84,20.91.16,123.68.13Z"/><polygon class="cls-13" points="224.41 503.09 213.95 502.98 164.85 547.52 529.15 549.81 482.33 502.98 337.74 503.84 239.08 507.55 224.41 503.09"/><path class="cls-14" d="M480.05,477.86S376.12,466.44,356.71,479c0,0-3.43,8,3.42,11.42s-6.85,20.56-4.56,21.7,115.34,5.71,121.05,0-8-4.57-6.85-18.27,9.13-8,11.42-10.28S483.47,477.86,480.05,477.86Z"/><path class="cls-14" d="M216.43,477.86S320.35,466.44,339.77,479c0,0,3.42,8-3.43,11.42s6.85,20.56,4.57,21.7-115.35,5.71-121.06,0,8-4.57,6.86-18.27-9.14-8-11.42-10.28S213,477.86,216.43,477.86Z"/><rect class="cls-15" x="164.85" y="547.52" width="364.31" height="41.11"/><rect class="cls-12" x="150" y="588.64" width="394" height="27.41"/><rect class="cls-12" x="196.82" y="616.04" width="20.56" height="34.26"/><rect class="cls-12" x="490.32" y="616.04" width="20.56" height="34.26"/><rect class="cls-16" x="485.76" y="616.04" width="4.57" height="34.26"/><rect class="cls-16" x="217.38" y="616.04" width="4.57" height="34.26"/><polygon class="cls-16" points="164.85 588.64 164.85 577.13 150 588.64 164.85 588.64"/><polygon class="cls-16" points="529.15 578.18 529.15 588.64 544 588.64 529.15 578.18"/><rect class="cls-17" x="219" y="247" width="97" height="125.35"/><rect class="cls-6" x="225.72" y="253.72" width="83.57" height="113.42"/><polygon class="cls-18" points="250.34 347.73 281.68 347.73 288.39 291.02 243.62 291.02 250.34 347.73"/><polygon class="cls-19" points="240.64 291.02 241.38 285.8 243.62 285.8 245.12 279.08 266.01 279.08 279.44 273.86 286.15 273.86 288.39 285.05 291.38 285.05 291.38 291.02 266.06 291.02 243.62 291.02 240.64 291.02"/><polygon class="cls-7" points="245.16 304.01 286.85 304.01 284.27 325.84 247.75 325.84 245.16 304.01"/><path class="cls-20" d="M266,309.68s6-4.48,8.21-2.24a6.16,6.16,0,0,1,1.49,6.71c-.75,1.5-1.49,5.23-9.7,9.7,0,0-8.21-4.47-9.7-9.7s2.24-7.46,2.24-7.46S262.28,305.2,266,309.68Z"/><polygon class="cls-21" points="266.06 304.01 266.01 291.02 243.62 291.02 245.12 303.71 266.06 304.01"/><polygon class="cls-21" points="248.1 326.09 266.01 326.09 266.06 347.73 250.34 347.73 248.1 326.09"/><path class="cls-22" d="M266,309.68s-3-4.48-7.46-3-2.24,8.21-2.24,8.21.22,2.79,6.83,7l2.87,2Z"/><polyline class="cls-2" points="480 314 477 314 477 313.38 480 314.18"/><path class="cls-2" d="M450.63,373.49S453,370,455,370s5.17,4.61,5.17,4.61L461,367H449Z"/><path class="cls-7" d="M423.76,295.84s2.91,8.72-27.63,15.92a8.31,8.31,0,0,0-5.77,5C387,325,380.2,347.09,378.64,392.36c0,0-7.34,28.33-7.34,31.48s-3.15,30.42-1.05,37.77c0,0-4.2,10.49-4.2,17.83s5.25,13.64,6.3,13.64c3.14,0,2.1-17.84,1-21s3.14,7.34,4.19,9.44c2.1,4.2,3.15,0,1.05-8.39s-3.15-13.64-3.15-13.64l9.23-28.71a7.23,7.23,0,0,0,.31-1.36l4-31.2a5.51,5.51,0,0,1,.31-1.21c1.67-4.41,12.28-32.69,11.31-41.39,0,0,0,12.59,5.25,14.69,0,0,10.49,19.93-8.39,57.7,0,0,43,12.59,73.44,1.05,0,0-14.08-37.22-9.75-53.54a8.1,8.1,0,0,0,.31-2.07v-1.21a1.62,1.62,0,0,1,.68-1.33c1.8-1.26,6.46-5.14,5.61-11.09-1.05-7.35,8.39,32.52,10.49,35.67,1.88,2.82,3.76,22.49,4.13,26.55a7,7,0,0,0,.3,1.42c1.62,4.9,11.22,34.28,10.26,38.13-1.05,4.19-4.2,15.73-2.1,18.88s1.05-9.44,3.15-9.44,1.05,19.68,1.05,22c0,4.2,3.15,0,5.25-4.2s4.19-12.59,1-18.88-3.14-24.13-3.14-24.13,0-19.94-1.05-25.18c-1-4.85-6.42-24-7.24-26.92a2.65,2.65,0,0,1-.11-.74c0-3.58-.06-31.23-1.05-33.19s-4.19-44.07-11.54-47.22-21-3.14-27.27-8.39-9.45-16.79-9.45-16.79Z"/><circle class="cls-23" cx="434.77" cy="415.97" r="1.57"/><path class="cls-24" d="M439.49,363s-8.39-7.34,1.05-17.83"/><path class="cls-7" d="M395.43,442.72s31.47-2.1,36.72,26.23c0,0-6.3,95.47-6.3,97.57s4.2,60.85-3.14,83.94a9.79,9.79,0,0,1,1.05,7.34c-1.05,4.2,5.24,16.79,2.09,19.93s-12.59,2.1-12.59,2.1-5.24-1.05-1-13.64,1-26.23,1-26.23L408,605.34s-2.1-14.69,3.15-34.62c0,0-7.35-36.72-9.45-48.26S389.13,456.36,395.43,442.72Z"/><path class="cls-24" d="M429.76,363s8.39-7.34-1.05-17.83"/><path class="cls-7" d="M474,442s-31.3-2.09-36.51,26.2c0,0,6.26,95.35,6.26,97.44s-4.18,60.77,3.13,83.82a9.86,9.86,0,0,0-1,7.34c1,4.19-5.21,16.76-2.08,19.91s12.52,2.09,12.52,2.09,5.21-1.05,1-13.62-1-26.19-1-26.19l5.21-34.58s2.09-14.67-3.13-34.58c0,0,7.31-36.67,9.39-48.19S480.28,455.66,474,442Z"/><path class="cls-2" d="M397.53,428l-2.1,14.69s31.47,2.1,36.72,26.23h5.25s12.59-29.38,36.72-26.23L471,428S445.79,440.62,397.53,428Z"/><path class="cls-2" d="M457.33,308.43s5.25,34.62,3.15,35.67-24.13,8.39-23.08,22,19.93,8.39,19.93,8.39a13.54,13.54,0,0,0,10.49-13.63c0-11.55-3.15-18.89-3.15-18.89l-4.19-33.57Z"/><path class="cls-2" d="M411.13,308.43s-5.25,34.62-3.15,35.67,24.13,8.39,23.08,22-19.93,8.39-19.93,8.39a13.54,13.54,0,0,1-10.49-13.63c0-11.55,3.15-18.89,3.15-18.89L408,308.43Z"/><path class="cls-1" d="M429.76,363s8.39-7.34-1.05-17.83"/><rect class="cls-2" x="429" y="366" width="13" height="2"/><polygon class="cls-7" points="424 296 424 287.71 440.54 287.44 442 306 424 296"/><polyline class="cls-14" points="423 298 424 325 402 339 400 306 404 291 423 298"/><path class="cls-14" d="M443,296l-3,29,18,8s6-28.14,5.49-29.57S443,296,443,296"/><polyline class="cls-14" points="442.78 293.32 442.31 302.65 447 296 442.78 293.32"/><polygon class="cls-14" points="423.08 300.2 423 293 420 298 423.08 300.2"/><polygon class="cls-10" points="424 295.71 423.75 297.21 424 293 424 295.71"/><rect class="cls-10" x="320" y="252" width="1" height="1"/><path class="cls-10" d="M440.54,287.44s.43,12,1.94,11.79l.3-5.91-2.24-5.88"/><path class="cls-14" d="M411.52,243.37h41.13s.82-4.94,1.65-4.94,0,17.28,0,17.28,3.43-3.79,4.18,5.1h0a6.69,6.69,0,0,1-5,7.24h0s0,9.87-10.69,18.1h0V296l20.57,9.87S468.28,230.2,451,222s-37.85-4.12-38.67,0c0,0-7.4,4.11-9,18.1S400,305.89,400,305.89l23-8.23.11-10.64s-11.63-8.28-13.28-21.44h0s-2.47,2.47-4.93-4.94,4.93-6.58,4.93-6.58-.82-15.63,0-15.63,1.65,4.94,1.65,4.94"/><path class="cls-7" d="M422.21,286.15s9.87,10.69,20.57,0,10.69-18.1,10.69-18.1,5.76-.83,4.94-8.23-4.11-4.11-4.11-4.11.82-16.46,0-17.28-1.65,4.94-1.65,4.94H411.52s-.83-4.94-1.65-4.94,0,15.63,0,15.63-7.4-.82-4.93,6.58,4.93,4.94,4.93,4.94S410.69,277.1,422.21,286.15Z"/></g></svg>
